# xmcd
# Copyright (C) 1995-1998 Ti Kan
#
# Track frame offsets:
#        150
#        12405
#        35792
#        49649
#        63676
#        77821
#        89556
#        102962
#        119580
#        136525
#
# Disc length: 2019 seconds
#
# Revision: 0
# Processed by: cddbd v1.5.2PL0 Copyright (c) Steve Scherf et al.
# Submitted via: ExactAudioCopy v0.95b4
#
DISCID=8707e10a
DTITLE=Starflyer 59 - My Island
DYEAR=2006
DGENRE=Indie Rock
TTITLE0=The Frontman
TTITLE1=Nice Guy
TTITLE2=I Win
TTITLE3=Division
TTITLE4=Mic the Mic
TTITLE5=It's Alright Blondie
TTITLE6=My Island
TTITLE7=Pearl of Great Price
TTITLE8=Lifeguard
TTITLE9=Ideas for the Talented
EXTD=
EXTT0=
EXTT1=
EXTT2=
EXTT3=
EXTT4=
EXTT5=
EXTT6=
EXTT7=
EXTT8=
EXTT9=
PLAYORDER=
